{"title":"Le.fabuleux.destin.d_AmÃƒÂ©lie.Poulain.2001.DVDRip.H.264.MP4.AAC.M","uid":4906226,"size":1894627460,"categoryP":"video","categoryS":"movies","magnet":"?xt=urn:btih:c4c770a76134d11b0a749114b580076d892cd072&amp;dn=Le.fabuleux.destin.d_Am%C3%83%C2%A9lie.Poulain.2001.DVDRip.H.264.MP4.AAC.M&amp;tr=udp%3A%2F%2Ftracker.openbittorrent.com%3A80&amp;tr=udp%3A%2F%2Fopen.demonii.com%3A1337&amp;tr=udp%3A%2F%2Ftracker.coppersurfer.tk%3A6969&amp;tr=udp%3A%2F%2Fexodus.desync.com%3A6969","seeders":1,"leechers":0,"uploader":"mindbreaker3103","files":-1,"time":1242907196,"description":"imdb :       &lt;a href=&quot; http://www.imdb.com/title/tt0211915/&quot; rel=&quot;nofollow&quot; target=&quot;_NEW&quot;&gt; http://www.imdb.com/title/tt0211915/&lt;/a&gt;\nTagline:     One person can change your life forever.\nPlot:           Amelie, an innocent and naive girl in Paris, with her own sense of justice, decides to help those around her and along the way, discovers love. \nTotal Size : 1.76 GB\n\nGeneral\nComplete name                   : Le fabuleux destin d'AmÃƒÂ©lie Poulain 2001 DVDRip [H.264-MP4-AAC] ~ Mindbreaker.mp4\nFormat                          : H.264/AAC/MP4 - Anamophic\nSource                          : DVD (retail)\nFile size                       : 1.76 GiB\nDuration                        : 1h 56mn\nOverall bit rate                : 2 164 Kbps\n\n\nVideo\nID                              : 1\nFormat                          : AVC\nFormat/Info                     : Advanced Video Codec\nFormat profile                  : &lt;a class=&quot;__cf_email__&quot; href=&quot;/cdn-cgi/l/email-protection&quot; data-cfemail=&quot;1951707e7159552a3729&quot;&gt;[email&amp;#160;protected]&lt;/a&gt;&lt;script data-cfhash='f9e31' type=&quot;text/javascript&quot;&gt;\n/* &lt;![CDATA[ */!function(){try{var t=&quot;currentScript&quot;in document?document.currentScript:function(){for(var t=document.getElementsByTagName(&quot;script&quot;),e=t.length;e--;)if(t[e].getAttribute(&quot;data-cfhash&quot;))return t[e]}();if(t&amp;&amp;t.previousSibling){var e,r,n,i,c=t.previousSibling,a=c.getAttribute(&quot;data-cfemail&quot;);if(a){for(e=&quot;&quot;,r=parseInt(a.substr(0,2),16),n=2;a.length-n;n+=2)i=parseInt(a.substr(n,2),16)^r,e+=String.fromCharCode(i);e=document.createTextNode(e),c.parentNode.replaceChild(e,c)}t.parentNode.removeChild(t);}}catch(u){}}()/* ]]&gt; */&lt;/script&gt;\nDuration                        : 1h 56mn\nBit rate                        : 2 000 Kbps\nWidth                           : 716 pixels\nHeight                          : 436 pixels\nDisplay aspect ratio            : 2.403\nFrame rate                      : 25.000 fps\nBits/(Pixel*Frame)              : 0.256\nStream size                     : 1.63 GiB (92%)\nWriting library                 : x264 core 65\n\nAudio\nID                              : 2\nFormat                          : AAC\nFormat/Info                     : Advanced Audio Codec\nFormat profile                  : LC\nDuration                        : 1h 56mn\nBit rate                        : 160 Kbps\nChannel(s)                      : 2 channels\nSampling rate                   : 48.0 KHz\nStream size                     : 133 MiB (7%)\nLanguage                        : French\n\nSubtitle\nFormat                          : SubRip\nLanguage                        : Dutch &amp; English\n\n &lt;a href=&quot;\nhttp://genesis.1337x.org:1337/announce&quot; rel=&quot;nofollow&quot; target=&quot;_NEW&quot;&gt;\nhttp://genesis.1337x.org:1337/announce&lt;/a&gt; &lt;a href=&quot;\nhttp://open.tracker.thepiratebay.se/announce&quot; rel=&quot;nofollow&quot; target=&quot;_NEW&quot;&gt;\nhttp://open.tracker.thepiratebay.se/announce&lt;/a&gt;\n\n\n","torrent":{"xt":"urn:btih:c4c770a76134d11b0a749114b580076d892cd072","amp;dn":"Le.fabuleux.destin.d_Am%C3%83%C2%A9lie.Poulain.2001.DVDRip.H.264.MP4.AAC.M","amp;tr":["udp%3A%2F%2Ftracker.openbittorrent.com%3A80","udp%3A%2F%2Fopen.demonii.com%3A1337","udp%3A%2F%2Ftracker.coppersurfer.tk%3A6969","udp%3A%2F%2Fexodus.desync.com%3A6969"],"infoHash":"c4c770a76134d11b0a749114b580076d892cd072","infoHashBuffer":{"type":"Buffer","data":[196,199,112,167,97,52,209,27,10,116,145,20,181,128,7,109,137,44,208,114]},"announce":[],"urlList":[]}}